# File created by Blade
# Date/Time:  Wed Jan 28 16:58:26 2015
#---------------------------------------------------------
:version 1.10
:name HOM
:units
  mass 1.0
  length 1.000000
  angle deg
:documentation
     Acclaim Skeleton File
:root
   axis xyz
   order TX TY TZ RX RY RZ
   position 0.000000 0.000000 0.000000
   orientation 0 0 0
:bonedata
   begin
      id 1
      name Spine_dum
      direction 0.000000 1.000000 0.000000
      length 9.621153
      axis 0.0 0.0 0.0 xyz
   end
   begin
      id 2
      name LeftUpLeg_dum
      direction 1.000000 0.000000 0.000000
      length 2.700595
      axis 0.0 0.0 0.0 xyz
   end
   begin
      id 3
      name RightUpLeg_dum
      direction -1.000000 0.000000 0.000000
      length 2.700595
      axis 0.0 0.0 0.0 xyz
   end
   begin
      id 4
      name Spine
      direction 0.000000 1.000000 0.000000
      length 0.000000
      axis 0.0 0.0 0.0 xyz
      dof rx ry rz
   end
   begin
      id 5
      name Spine_dum1
      direction 0.000000 1.000000 0.000000
      length 12.771951
      axis 0.0 0.0 0.0 xyz
   end
   begin
      id 6
      name Spine_dum2
      direction 0.000000 1.000000 0.000000
      length 7.400569
      axis 0.0 0.0 0.0 xyz
   end
   begin
      id 7
      name Spine_dum3
      direction 0.000000 1.000000 0.000000
      length 7.400569
      axis 0.0 0.0 0.0 xyz
   end
   begin
      id 8
      name Head
      direction 0.000000 1.000000 0.000000
      length 4.527550
      axis 0.0 0.0 0.0 xyz
      dof rx ry rz
   end
   begin
      id 9
      name LeftShoulder
      direction 1.000000 0.000000 0.000000
      length 8.349299
      axis 0.0 0.0 -90.0 xyz
      dof rx ry rz
   end
   begin
      id 10
      name LeftArm
      direction 1.000000 0.000000 0.000000
      length 11.334839
      axis 0.0 0.0 -90.0 xyz
      dof rx ry rz
   end
   begin
      id 11
      name LeftForeArm
      direction 1.000000 0.000000 0.000000
      length 9.694182
      axis 0.0 0.0 -90.0 xyz
      dof ry rz rx
   end
   begin
      id 12
      name LeftHand
      direction 0.000000 0.000000 0.000000
      length 0.000000
      axis 0.0 0.0 -90.0 xyz
      dof rx ry rz
   end
   begin
      id 13
      name LeftHand_dum1
      direction 0.000000 0.000000 0.000000
      length 0.000000
      axis 0.0 0.0 -90.0 xyz
   end
   begin
      id 14
      name LeftHand_dum2
      direction 1.000000 0.000000 0.000000
      length 3.937000
      axis 0.0 0.0 -90.0 xyz
   end
   begin
      id 15
      name LeftHandThumb1
      direction 0.000000 0.000000 1.000000
      length 3.937000
      axis 0.0 0.0 -90.0 xyz
      dof rx rz ry
   end
   begin
      id 16
      name RightShoulder
      direction -1.000000 0.000000 0.000000
      length 8.349299
      axis 0.0 0.0 90.0 xyz
      dof rx ry rz
   end
   begin
      id 17
      name RightArm
      direction -1.000000 0.000000 0.000000
      length 11.334839
      axis 0.0 0.0 90.0 xyz
      dof rx ry rz
   end
   begin
      id 18
      name RightForeArm
      direction -1.000000 0.000000 0.000000
      length 9.694182
      axis 0.0 0.0 90.0 xyz
      dof ry rz rx
   end
   begin
      id 19
      name RightHand
      direction 0.000000 0.000000 0.000000
      length 0.000000
      axis 0.0 0.0 90.0 xyz
      dof rx ry rz
   end
   begin
      id 20
      name RightHand_dum1
      direction 0.000000 0.000000 0.000000
      length 0.000000
      axis 0.0 0.0 90.0 xyz
   end
   begin
      id 21
      name RightHand_dum2
      direction -1.000000 0.000000 0.000000
      length 3.937000
      axis 0.0 0.0 90.0 xyz
   end
   begin
      id 22
      name RightHandThumb1
      direction 0.000000 0.000000 1.000000
      length 3.937000
      axis 0.0 0.0 90.0 xyz
      dof rx rz ry
   end
   begin
      id 23
      name LeftUpLeg
      direction 0.000000 -1.000000 0.000000
      length 16.757176
      axis 0.0 0.0 0.0 xyz
      dof rx ry rz
   end
   begin
      id 24
      name LeftLeg
      direction 0.000000 -1.000000 0.000000
      length 16.759153
      axis 0.0 0.0 0.0 xyz
      dof rx ry rz
   end
   begin
      id 25
      name LeftFoot
      direction 0.000000 -0.258819 0.965926
      length 5.841289
      axis 15.0 0.0 0.0 xyz
      dof rx ry rz
   end
   begin
      id 26
      name LeftToeBase
      direction 0.000000 0.000000 1.000000
      length 2.952750
      axis 0.0 0.0 0.0 xyz
      dof rx ry rz
   end
   begin
      id 27
      name RightUpLeg
      direction 0.000000 -1.000000 0.000000
      length 16.757176
      axis 0.0 0.0 0.0 xyz
      dof rx ry rz
   end
   begin
      id 28
      name RightLeg
      direction 0.000000 -1.000000 0.000000
      length 16.759153
      axis 0.0 0.0 0.0 xyz
      dof rx ry rz
   end
   begin
      id 29
      name RightFoot
      direction 0.000000 -0.258819 0.965926
      length 5.841289
      axis 15.0 0.0 0.0 xyz
      dof rx ry rz
   end
   begin
      id 30
      name RightToeBase
      direction 0.000000 0.000000 1.000000
      length 2.952750
      axis 0.0 0.0 0.0 xyz
      dof rx ry rz
   end
:hierarchy
   begin
      root Spine_dum LeftUpLeg_dum RightUpLeg_dum
      Spine_dum Spine
      LeftUpLeg_dum LeftUpLeg
      RightUpLeg_dum RightUpLeg
      Spine Spine_dum1 Spine_dum2 Spine_dum3
      Spine_dum1 Head
      Spine_dum2 LeftShoulder
      Spine_dum3 RightShoulder
      LeftShoulder LeftArm
      LeftArm LeftForeArm
      LeftForeArm LeftHand
      LeftHand LeftHand_dum1 LeftHand_dum2
      LeftHand_dum1 LeftHandThumb1
      RightShoulder RightArm
      RightArm RightForeArm
      RightForeArm RightHand
      RightHand RightHand_dum1 RightHand_dum2
      RightHand_dum1 RightHandThumb1
      LeftUpLeg LeftLeg
      LeftLeg LeftFoot
      LeftFoot LeftToeBase
      RightUpLeg RightLeg
      RightLeg RightFoot
      RightFoot RightToeBase
   end

# File created by Blade
# Date/Time:  Wed Jan 28 16:58:32 2015
# Frame Rate: 120.000 fps
#------------------------------------------------------
:FULLY-SPECIFIED
:DEGREES
3756
root 14.112516 37.672339 -19.064317 236.967618 44.799389 -122.808394
Spine 25.401613 -1.794451 22.335818
Head 21.501180 7.887628 44.435387
LeftShoulder -7.333645 3.887739 24.214333
LeftArm 37.008787 -35.122944 -70.300537
LeftForeArm -11.521341 0.000000 112.892971
LeftHand -9.432626 -0.000000 26.741276
LeftHandThumb1 -26.253704 0.000000 33.147579
RightShoulder -23.442427 -5.933913 -4.701747
RightArm 6.144460 -0.677486 67.972146
RightForeArm -4.148489 -0.000000 31.190107
RightHand -16.633271 0.000000 -17.329133
RightHandThumb1 -24.326973 -0.000000 -32.862282
LeftUpLeg -12.309980 22.061617 26.145883
LeftLeg 8.388424 -0.000000 -0.000000
LeftFoot -13.085641 23.258638 -13.526812
LeftToeBase 10.051616 -0.000000 -0.000000
RightUpLeg -55.173637 -16.259817 -16.422142
RightLeg 131.931361 -0.000000 -0.000000
RightFoot 9.818369 -4.410644 3.251065
RightToeBase -1.446362 -0.000000 0.000000
3757
root 14.108439 37.660286 -19.075647 236.690110 44.981965 -122.869812
Spine 25.430483 -1.804259 22.350946
Head 21.654423 8.074541 44.095512
LeftShoulder -7.232980 3.865886 24.242465
LeftArm 36.771719 -34.455261 -70.097567
LeftForeArm -11.199209 -0.000000 112.748084
LeftHand -9.294612 -0.000000 26.988572
LeftHandThumb1 -26.253704 0.000000 33.147579
RightShoulder -23.396791 -5.911701 -4.728800
RightArm 6.280994 -1.215647 68.094185
RightForeArm -4.283411 -0.000000 31.238559
RightHand -16.800997 0.000000 -16.843745
RightHandThumb1 -24.326973 -0.000000 -32.862282
LeftUpLeg -12.122987 22.212593 26.000954
LeftLeg 8.503116 -0.000000 -0.000000
LeftFoot -13.147378 23.102534 -13.485437
LeftToeBase 10.073454 -0.000000 -0.000000
RightUpLeg -55.757111 -15.800608 -15.455794
RightLeg 132.092767 -0.000000 -0.000000
RightFoot 9.571795 -4.430692 3.420304
RightToeBase -1.632123 -0.000000 0.000000
3758
root 14.109106 37.641410 -19.089733 236.305751 45.197582 -123.019090
Spine 25.485279 -1.892793 22.252092
Head 21.838473 8.241537 43.774818
LeftShoulder -7.150968 3.872253 24.296675
LeftArm 36.513985 -33.879932 -69.869275
LeftForeArm -10.877813 -0.000000 112.608938
LeftHand -9.404531 -0.000000 27.032145
LeftHandThumb1 -26.253704 0.000000 33.147579
RightShoulder -23.339553 -5.848969 -4.726681
RightArm 6.397297 -1.711796 68.254826
RightForeArm -4.534753 -0.000000 31.360240
RightHand -16.829573 -0.000000 -16.493353
RightHandThumb1 -24.326973 -0.000000 -32.862282
LeftUpLeg -11.928597 22.407546 25.808035
LeftLeg 8.687931 -0.000000 -0.000000
LeftFoot -13.252740 22.806014 -13.455778
LeftToeBase 10.112089 -0.000000 -0.000000
RightUpLeg -56.334589 -15.483525 -14.644242
RightLeg 132.274434 -0.000000 -0.000000
RightFoot 9.433480 -4.426989 3.896616
RightToeBase -2.041184 -0.000000 0.000000
3759
root 14.117135 37.610711 -19.114757 235.727967 45.460782 -123.348177
Spine 25.549833 -2.046785 22.010274
Head 22.069871 8.435943 43.532402
LeftShoulder -7.017032 3.931343 24.393165
LeftArm 36.308373 -33.385197 -69.727786
LeftForeArm -10.584780 0.000000 112.449447
LeftHand -9.276377 -0.000000 27.169156
LeftHandThumb1 -26.253704 0.000000 33.147579
RightShoulder -23.287849 -5.904847 -4.637794
RightArm 6.593484 -2.119577 68.429711
RightForeArm -4.368549 -0.000000 31.624729
RightHand -17.294030 -0.000000 -15.922631
RightHandThumb1 -24.326973 -0.000000 -32.862282
LeftUpLeg -11.726950 22.680894 25.501793
LeftLeg 8.939571 -0.000000 -0.000000
LeftFoot -13.345250 22.363763 -13.349452
LeftToeBase 10.158245 -0.000000 -0.000000
RightUpLeg -56.710086 -15.376001 -14.147888
RightLeg 132.461210 -0.000000 -0.000000
RightFoot 9.117116 -4.251360 4.700936
RightToeBase -2.265075 -0.000000 0.000000
3760
root 14.123052 37.572715 -19.149893 234.912479 45.690589 -123.909427
Spine 25.653957 -2.446612 21.707673
Head 22.337828 8.670987 43.191985
LeftShoulder -7.003684 3.929514 24.389321
LeftArm 36.152100 -32.892280 -69.538973
LeftForeArm -10.331052 -0.000000 112.199776
LeftHand -9.320778 -0.000000 27.199944
LeftHandThumb1 -26.253704 0.000000 33.147579
RightShoulder -23.162201 -5.843048 -4.639291
RightArm 6.668446 -2.532006 68.634434
RightForeArm -4.680927 -0.000000 31.893611
RightHand -17.427414 -0.000000 -15.046272
RightHandThumb1 -24.326973 -0.000000 -32.862282
LeftUpLeg -11.559388 22.857229 25.115969
LeftLeg 9.265830 -0.000000 -0.000000
LeftFoot -13.586297 21.706367 -13.452550
LeftToeBase 10.192439 -0.000000 -0.000000
RightUpLeg -56.956009 -15.557790 -13.860590
RightLeg 132.648289 -0.000000 -0.000000
RightFoot 8.881697 -4.071172 5.671573
RightToeBase -2.539538 -0.000000 0.000000
3761
root 14.129995 37.530882 -19.186361 234.057372 45.932419 -124.579079
Spine 25.670917 -2.756516 21.310304
Head 22.582952 8.768251 43.053604
LeftShoulder -6.853459 4.056258 24.487049
LeftArm 36.106737 -32.511358 -69.508553
LeftForeArm -10.051820 -0.000000 111.996579
LeftHand -9.349014 -0.000000 27.344069
LeftHandThumb1 -26.253704 0.000000 33.147579
RightShoulder -23.162658 -5.803949 -4.500516
RightArm 6.765019 -3.118928 68.765837
RightForeArm -4.627067 -0.000000 32.132678
RightHand -17.559309 -0.000000 -14.535953
RightHandThumb1 -24.326973 -0.000000 -32.862282
LeftUpLeg -11.487703 23.064251 24.647916
LeftLeg 9.660709 -0.000000 -0.000000
LeftFoot -13.761261 21.029480 -13.342587
LeftToeBase 10.173658 -0.000000 -0.000000
RightUpLeg -57.351012 -16.008676 -13.676507
RightLeg 132.861999 -0.000000 -0.000000
RightFoot 8.963848 -3.907291 6.471029
RightToeBase -2.508095 -0.000000 0.000000
3762
root 14.133986 37.486986 -19.223229 233.180113 46.149982 -125.309494
Spine 25.614482 -3.126921 20.921179
Head 22.915146 8.814855 42.852695
LeftShoulder -6.796786 4.235976 24.480552
LeftArm 36.187793 -32.071249 -69.475612
LeftForeArm -9.753399 -0.000000 111.690574
LeftHand -9.303663 -0.000000 27.525900
LeftHandThumb1 -26.253704 0.000000 33.147579
RightShoulder -23.111753 -5.845977 -4.388050
RightArm 6.871639 -3.669989 68.931630
RightForeArm -4.606134 -0.000000 32.400245
RightHand -17.504884 -0.000000 -13.877758
RightHandThumb1 -24.326973 -0.000000 -32.862282
LeftUpLeg -11.480518 23.213911 24.146313
LeftLeg 10.079393 -0.000000 -0.000000
LeftFoot -13.939654 20.422477 -13.200530
LeftToeBase 10.167054 -0.000000 -0.000000
RightUpLeg -57.862002 -16.606153 -13.509723
RightLeg 133.077074 -0.000000 -0.000000
RightFoot 9.384409 -3.775258 7.061364
RightToeBase -2.711582 -0.000000 0.000000
3763
root 14.141568 37.450258 -19.253608 232.329865 46.253799 -126.035520
Spine 25.501568 -3.518335 20.668791
Head 23.256604 8.769958 42.649200
LeftShoulder -6.730521 4.371093 24.406496
LeftArm 36.318796 -31.634776 -69.455448
LeftForeArm -9.532411 0.000000 111.329942
LeftHand -9.127095 -0.000000 27.682803
LeftHandThumb1 -26.253704 0.000000 33.147579
RightShoulder -23.082587 -5.977314 -4.279557
RightArm 7.025076 -4.280299 69.093046
RightForeArm -4.572771 -0.000000 32.719380
RightHand -17.975898 -0.000000 -13.323509
RightHandThumb1 -24.326973 -0.000000 -32.862282
LeftUpLeg -11.560132 23.327685 23.703295
LeftLeg 10.529989 -0.000000 -0.000000
LeftFoot -14.094365 19.919154 -13.037013
LeftToeBase 10.167298 -0.000000 -0.000000
RightUpLeg -58.472198 -17.281979 -13.235834
RightLeg 133.247304 -0.000000 -0.000000
RightFoot 10.134820 -3.721326 7.440255
RightToeBase -2.795807 -0.000000 0.000000
3764
root 14.152520 37.420128 -19.280419 231.544068 46.286897 -126.635748
Spine 25.432794 -3.927872 20.577543
Head 23.559361 8.738446 42.324021
LeftShoulder -6.766285 4.530913 24.173686
LeftArm 36.612184 -31.155639 -69.430877
LeftForeArm -9.327599 -0.000000 110.929223
LeftHand -9.101658 -0.000000 27.893433
LeftHandThumb1 -26.253704 0.000000 33.147579
RightShoulder -23.022132 -6.029787 -4.309201
RightArm 7.107879 -4.993770 69.253364
RightForeArm -4.586387 0.000000 32.944206
RightHand -18.131427 -0.000000 -12.809155
RightHandThumb1 -24.326973 -0.000000 -32.862282
LeftUpLeg -11.592697 23.515817 23.370747
LeftLeg 10.947172 -0.000000 -0.000000
LeftFoot -14.211035 19.455424 -12.820908
LeftToeBase 10.123269 -0.000000 -0.000000
RightUpLeg -59.140916 -17.998804 -12.875046
RightLeg 133.392059 -0.000000 -0.000000
RightFoot 11.090969 -3.675607 7.759713
RightToeBase -3.001202 -0.000000 0.000000
3765
root 14.163803 37.398194 -19.308828 230.789488 46.259827 -127.202382
Spine 25.367445 -4.264333 20.566867
Head 23.780372 8.661098 42.094006
LeftShoulder -6.643276 4.598485 24.110267
LeftArm 36.703845 -30.730393 -69.542566
LeftForeArm -9.066475 0.000000 110.607660
LeftHand -8.835474 -0.000000 28.156083
LeftHandThumb1 -26.253704 0.000000 33.147579
RightShoulder -23.102287 -6.095573 -4.250179
RightArm 7.296007 -5.719812 69.310170
RightForeArm -4.803294 -0.000000 33.115720
RightHand -18.124349 0.000000 -11.810223
RightHandThumb1 -24.326973 -0.000000 -32.862282
LeftUpLeg -11.599802 23.548421 23.097282
LeftLeg 11.294228 -0.000000 -0.000000
LeftFoot -14.305453 19.181630 -12.631060
LeftToeBase 10.115903 -0.000000 -0.000000
RightUpLeg -59.824529 -18.740486 -12.512915
RightLeg 133.496145 -0.000000 -0.000000
RightFoot 12.061680 -3.540302 8.117664
RightToeBase -2.789816 -0.000000 0.000000
3766
root 14.182707 37.381592 -19.338357 230.084132 46.227420 -127.636806
Spine 25.367605 -4.624190 20.628729
Head 24.091698 8.577488 41.802989
LeftShoulder -6.608374 4.676175 23.923394
LeftArm 36.810707 -30.332903 -69.595528
LeftForeArm -8.842630 -0.000000 110.290509
LeftHand -8.748219 -0.000000 28.226798
LeftHandThumb1 -26.253704 0.000000 33.147579
RightShoulder -23.008120 -6.054731 -4.350430
RightArm 7.276783 -6.436879 69.446544
RightForeArm -4.982230 -0.000000 33.269774
RightHand -17.883650 -0.000000 -11.131364
RightHandThumb1 -24.326973 -0.000000 -32.862282
LeftUpLeg -11.444106 23.497650 22.937302
LeftLeg 11.516674 -0.000000 -0.000000
LeftFoot -14.408098 19.071931 -12.510844
LeftToeBase 10.146620 -0.000000 -0.000000
RightUpLeg -60.475027 -19.441032 -12.166690
RightLeg 133.584022 -0.000000 -0.000000
RightFoot 13.046991 -3.276800 8.308437
RightToeBase -2.752530 -0.000000 0.000000
3767
root 14.209842 37.368674 -19.372172 229.451470 46.289018 -127.897483
Spine 25.484524 -4.800995 20.688732
Head 24.340569 8.502296 41.584859
LeftShoulder -6.521090 4.741952 23.751063
LeftArm 36.858175 -29.930061 -69.584440
LeftForeArm -8.651313 0.000000 110.024111
LeftHand -8.590237 -0.000000 28.419014
LeftHandThumb1 -26.253704 0.000000 33.147579
RightShoulder -23.024623 -6.336462 -4.289592
RightArm 7.638658 -7.087927 69.544265
RightForeArm -5.217264 -0.000000 33.393098
RightHand -17.662251 -0.000000 -10.634361
RightHandThumb1 -24.326973 -0.000000 -32.862282
LeftUpLeg -11.047613 23.455834 22.861158
LeftLeg 11.591354 -0.000000 -0.000000
LeftFoot -14.497352 19.040772 -12.411679
LeftToeBase 10.189250 -0.000000 -0.000000
RightUpLeg -61.096577 -20.025449 -11.901715
RightLeg 133.670759 -0.000000 -0.000000
RightFoot 13.911507 -2.958155 8.714223
RightToeBase -2.828538 -0.000000 0.000000
3768
root 14.238067 37.365107 -19.395855 228.989239 46.322758 -127.951886
Spine 25.619957 -4.904398 20.846169
Head 24.589821 8.391644 41.402072
LeftShoulder -6.446444 4.714256 23.634910
LeftArm 36.787094 -29.535906 -69.571839
LeftForeArm -8.488963 0.000000 109.794832
LeftHand -8.656405 -0.000000 28.438386
LeftHandThumb1 -26.253704 0.000000 33.147579
RightShoulder -23.003261 -6.332752 -4.367585
RightArm 7.739367 -7.946884 69.619579
RightForeArm -5.511580 -0.000000 33.490437
RightHand -17.434358 -0.000000 -9.940665
RightHandThumb1 -24.326973 -0.000000 -32.862282
LeftUpLeg -10.594730 23.437776 22.935500
LeftLeg 11.597429 -0.000000 -0.000000
LeftFoot -14.575884 19.047097 -12.438436
LeftToeBase 10.215542 -0.000000 -0.000000
RightUpLeg -61.811055 -20.497630 -11.525453
RightLeg 133.741583 -0.000000 -0.000000
RightFoot 14.783455 -2.653955 9.155533
RightToeBase -2.936097 -0.000000 0.000000
